<mxfile host="app.diagrams.net" agent="Mozilla/5.0 (X11; Linux x86_64; rv:137.0) Gecko/20100101 Firefox/137.0" version="26.2.5">
  <diagram name="Page-1" id="rd5WgjaN5qs2F5G4zhtr">
    <mxGraphModel dx="316" dy="709" grid="1" gridSize="10" guides="1" tooltips="1" connect="1" arrows="1" fold="1" page="1" pageScale="1" pageWidth="850" pageHeight="1100" math="0" shadow="0">
      <root>
        <mxCell id="0" />
        <mxCell id="1" parent="0" />
        <mxCell id="2QBdlu2DVjJhpSTRe-wy-269" style="edgeStyle=orthogonalEdgeStyle;rounded=0;orthogonalLoop=1;jettySize=auto;html=1;entryX=0;entryY=0.5;entryDx=0;entryDy=0;endArrow=none;startFill=0;" edge="1" parent="1" source="i1IyLrbdU4EnLdiSXplg-362" target="2QBdlu2DVjJhpSTRe-wy-268">
          <mxGeometry relative="1" as="geometry" />
        </mxCell>
        <mxCell id="i1IyLrbdU4EnLdiSXplg-362" value="Compra" style="rounded=0;whiteSpace=wrap;html=1;" parent="1" vertex="1">
          <mxGeometry x="1619" y="1129.9996189432343" width="200" height="60" as="geometry" />
        </mxCell>
        <mxCell id="2QBdlu2DVjJhpSTRe-wy-69" value="(0,n)" style="text;html=1;align=center;verticalAlign=middle;resizable=0;points=[];autosize=1;strokeColor=none;fillColor=none;" vertex="1" parent="1">
          <mxGeometry x="1718" y="1370" width="60" height="30" as="geometry" />
        </mxCell>
        <mxCell id="2QBdlu2DVjJhpSTRe-wy-137" value="" style="group;rotation=-90;" vertex="1" connectable="0" parent="1">
          <mxGeometry x="1601" y="1126.0011431703006" width="8" height="28" as="geometry" />
        </mxCell>
        <mxCell id="2QBdlu2DVjJhpSTRe-wy-138" value="" style="ellipse;whiteSpace=wrap;html=1;aspect=fixed;fillColor=light-dark(#FFFFFF,#FFFFFF);rotation=-90;" vertex="1" parent="2QBdlu2DVjJhpSTRe-wy-137">
          <mxGeometry x="-10" y="10" width="8" height="8" as="geometry" />
        </mxCell>
        <mxCell id="2QBdlu2DVjJhpSTRe-wy-139" style="edgeStyle=orthogonalEdgeStyle;rounded=0;orthogonalLoop=1;jettySize=auto;html=1;endArrow=none;startFill=0;" edge="1" parent="2QBdlu2DVjJhpSTRe-wy-137">
          <mxGeometry relative="1" as="geometry">
            <mxPoint x="18" y="14" as="targetPoint" />
            <mxPoint x="-2" y="14" as="sourcePoint" />
          </mxGeometry>
        </mxCell>
        <mxCell id="2QBdlu2DVjJhpSTRe-wy-140" value="" style="group;rotation=-90;" vertex="1" connectable="0" parent="1">
          <mxGeometry x="1601" y="1146.0011431703006" width="8" height="28" as="geometry" />
        </mxCell>
        <mxCell id="2QBdlu2DVjJhpSTRe-wy-141" value="" style="ellipse;whiteSpace=wrap;html=1;aspect=fixed;fillColor=light-dark(#FFFFFF,transparent);rotation=-90;" vertex="1" parent="2QBdlu2DVjJhpSTRe-wy-140">
          <mxGeometry x="-10" y="10" width="8" height="8" as="geometry" />
        </mxCell>
        <mxCell id="2QBdlu2DVjJhpSTRe-wy-142" style="edgeStyle=orthogonalEdgeStyle;rounded=0;orthogonalLoop=1;jettySize=auto;html=1;endArrow=none;startFill=0;" edge="1" parent="2QBdlu2DVjJhpSTRe-wy-140">
          <mxGeometry relative="1" as="geometry">
            <mxPoint x="18" y="14" as="targetPoint" />
            <mxPoint x="-2" y="14" as="sourcePoint" />
          </mxGeometry>
        </mxCell>
        <mxCell id="2QBdlu2DVjJhpSTRe-wy-143" value="&lt;font style=&quot;font-size: 8px;&quot;&gt;nro_ticket&lt;/font&gt;" style="text;html=1;align=center;verticalAlign=middle;resizable=0;points=[];autosize=1;strokeColor=none;fillColor=none;rotation=0;" vertex="1" parent="1">
          <mxGeometry x="1528" y="1123.0011431703008" width="70" height="30" as="geometry" />
        </mxCell>
        <mxCell id="2QBdlu2DVjJhpSTRe-wy-144" value="&lt;font style=&quot;font-size: 8px;&quot;&gt;precio&lt;/font&gt;" style="text;html=1;align=center;verticalAlign=middle;resizable=0;points=[];autosize=1;strokeColor=none;fillColor=none;rotation=0;" vertex="1" parent="1">
          <mxGeometry x="1547" y="1142.0011431703008" width="50" height="30" as="geometry" />
        </mxCell>
        <mxCell id="2QBdlu2DVjJhpSTRe-wy-147" style="edgeStyle=orthogonalEdgeStyle;rounded=0;orthogonalLoop=1;jettySize=auto;html=1;entryX=0.5;entryY=1;entryDx=0;entryDy=0;endArrow=none;startFill=0;" edge="1" parent="1" source="2QBdlu2DVjJhpSTRe-wy-145" target="2QBdlu2DVjJhpSTRe-wy-146">
          <mxGeometry relative="1" as="geometry" />
        </mxCell>
        <mxCell id="2QBdlu2DVjJhpSTRe-wy-145" value="Producto" style="rounded=0;whiteSpace=wrap;html=1;" vertex="1" parent="1">
          <mxGeometry x="1619" y="1399.9996189432343" width="200" height="60" as="geometry" />
        </mxCell>
        <mxCell id="2QBdlu2DVjJhpSTRe-wy-148" style="edgeStyle=orthogonalEdgeStyle;rounded=0;orthogonalLoop=1;jettySize=auto;html=1;entryX=0.5;entryY=1;entryDx=0;entryDy=0;endArrow=none;startFill=0;" edge="1" parent="1" source="2QBdlu2DVjJhpSTRe-wy-146" target="i1IyLrbdU4EnLdiSXplg-362">
          <mxGeometry relative="1" as="geometry" />
        </mxCell>
        <mxCell id="2QBdlu2DVjJhpSTRe-wy-146" value="tiene" style="rhombus;whiteSpace=wrap;html=1;" vertex="1" parent="1">
          <mxGeometry x="1679" y="1249" width="80" height="80" as="geometry" />
        </mxCell>
        <mxCell id="2QBdlu2DVjJhpSTRe-wy-150" value="(1,n)" style="text;html=1;align=center;verticalAlign=middle;resizable=0;points=[];autosize=1;strokeColor=none;fillColor=none;" vertex="1" parent="1">
          <mxGeometry x="1718" y="1189" width="60" height="30" as="geometry" />
        </mxCell>
        <mxCell id="2QBdlu2DVjJhpSTRe-wy-202" value="" style="group;rotation=90;" vertex="1" connectable="0" parent="1">
          <mxGeometry x="1746" y="1252.0011431703006" width="8" height="28" as="geometry" />
        </mxCell>
        <mxCell id="2QBdlu2DVjJhpSTRe-wy-203" value="" style="ellipse;whiteSpace=wrap;html=1;aspect=fixed;fillColor=light-dark(#FFFFFF,transparent);rotation=90;" vertex="1" parent="2QBdlu2DVjJhpSTRe-wy-202">
          <mxGeometry x="10" y="10" width="8" height="8" as="geometry" />
        </mxCell>
        <mxCell id="2QBdlu2DVjJhpSTRe-wy-204" style="edgeStyle=orthogonalEdgeStyle;rounded=0;orthogonalLoop=1;jettySize=auto;html=1;endArrow=none;startFill=0;" edge="1" parent="2QBdlu2DVjJhpSTRe-wy-202">
          <mxGeometry relative="1" as="geometry">
            <mxPoint x="-10" y="14" as="targetPoint" />
            <mxPoint x="10" y="14" as="sourcePoint" />
          </mxGeometry>
        </mxCell>
        <mxCell id="2QBdlu2DVjJhpSTRe-wy-205" value="&lt;font style=&quot;font-size: 8px;&quot;&gt;precio&lt;/font&gt;" style="text;html=1;align=center;verticalAlign=middle;resizable=0;points=[];autosize=1;strokeColor=none;fillColor=none;rotation=0;" vertex="1" parent="1">
          <mxGeometry x="1758" y="1248.0011431703008" width="50" height="30" as="geometry" />
        </mxCell>
        <mxCell id="2QBdlu2DVjJhpSTRe-wy-207" value="" style="group;rotation=90;" vertex="1" connectable="0" parent="1">
          <mxGeometry x="1747" y="1297.0011431703006" width="8" height="28" as="geometry" />
        </mxCell>
        <mxCell id="2QBdlu2DVjJhpSTRe-wy-208" value="" style="ellipse;whiteSpace=wrap;html=1;aspect=fixed;fillColor=light-dark(#FFFFFF,transparent);rotation=90;" vertex="1" parent="2QBdlu2DVjJhpSTRe-wy-207">
          <mxGeometry x="10" y="10" width="8" height="8" as="geometry" />
        </mxCell>
        <mxCell id="2QBdlu2DVjJhpSTRe-wy-209" style="edgeStyle=orthogonalEdgeStyle;rounded=0;orthogonalLoop=1;jettySize=auto;html=1;endArrow=none;startFill=0;" edge="1" parent="2QBdlu2DVjJhpSTRe-wy-207">
          <mxGeometry relative="1" as="geometry">
            <mxPoint x="-10" y="14" as="targetPoint" />
            <mxPoint x="10" y="14" as="sourcePoint" />
          </mxGeometry>
        </mxCell>
        <mxCell id="2QBdlu2DVjJhpSTRe-wy-210" value="&lt;font style=&quot;font-size: 8px;&quot;&gt;cantidad&lt;/font&gt;" style="text;html=1;align=center;verticalAlign=middle;resizable=0;points=[];autosize=1;strokeColor=none;fillColor=none;rotation=0;" vertex="1" parent="1">
          <mxGeometry x="1758" y="1294.0011431703008" width="60" height="30" as="geometry" />
        </mxCell>
        <mxCell id="2QBdlu2DVjJhpSTRe-wy-211" value="" style="group;rotation=90;" vertex="1" connectable="0" parent="1">
          <mxGeometry x="1829" y="1394.0011431703006" width="8" height="28" as="geometry" />
        </mxCell>
        <mxCell id="2QBdlu2DVjJhpSTRe-wy-212" value="" style="ellipse;whiteSpace=wrap;html=1;aspect=fixed;fillColor=light-dark(#FFFFFF,#FFFFFF);rotation=90;" vertex="1" parent="2QBdlu2DVjJhpSTRe-wy-211">
          <mxGeometry x="10" y="10" width="8" height="8" as="geometry" />
        </mxCell>
        <mxCell id="2QBdlu2DVjJhpSTRe-wy-213" style="edgeStyle=orthogonalEdgeStyle;rounded=0;orthogonalLoop=1;jettySize=auto;html=1;endArrow=none;startFill=0;" edge="1" parent="2QBdlu2DVjJhpSTRe-wy-211">
          <mxGeometry relative="1" as="geometry">
            <mxPoint x="-10" y="14" as="targetPoint" />
            <mxPoint x="10" y="14" as="sourcePoint" />
          </mxGeometry>
        </mxCell>
        <mxCell id="2QBdlu2DVjJhpSTRe-wy-214" value="" style="group;rotation=90;" vertex="1" connectable="0" parent="1">
          <mxGeometry x="1829" y="1409.0011431703006" width="8" height="28" as="geometry" />
        </mxCell>
        <mxCell id="2QBdlu2DVjJhpSTRe-wy-215" value="" style="ellipse;whiteSpace=wrap;html=1;aspect=fixed;fillColor=light-dark(#FFFFFF,transparent);rotation=90;" vertex="1" parent="2QBdlu2DVjJhpSTRe-wy-214">
          <mxGeometry x="10" y="10" width="8" height="8" as="geometry" />
        </mxCell>
        <mxCell id="2QBdlu2DVjJhpSTRe-wy-216" style="edgeStyle=orthogonalEdgeStyle;rounded=0;orthogonalLoop=1;jettySize=auto;html=1;endArrow=none;startFill=0;" edge="1" parent="2QBdlu2DVjJhpSTRe-wy-214">
          <mxGeometry relative="1" as="geometry">
            <mxPoint x="-10" y="14" as="targetPoint" />
            <mxPoint x="10" y="14" as="sourcePoint" />
          </mxGeometry>
        </mxCell>
        <mxCell id="2QBdlu2DVjJhpSTRe-wy-217" value="" style="group;rotation=90;" vertex="1" connectable="0" parent="1">
          <mxGeometry x="1829" y="1424.0011431703006" width="8" height="28" as="geometry" />
        </mxCell>
        <mxCell id="2QBdlu2DVjJhpSTRe-wy-218" value="" style="ellipse;whiteSpace=wrap;html=1;aspect=fixed;fillColor=light-dark(#FFFFFF,transparent);rotation=90;" vertex="1" parent="2QBdlu2DVjJhpSTRe-wy-217">
          <mxGeometry x="10" y="10" width="8" height="8" as="geometry" />
        </mxCell>
        <mxCell id="2QBdlu2DVjJhpSTRe-wy-219" style="edgeStyle=orthogonalEdgeStyle;rounded=0;orthogonalLoop=1;jettySize=auto;html=1;endArrow=none;startFill=0;" edge="1" parent="2QBdlu2DVjJhpSTRe-wy-217">
          <mxGeometry relative="1" as="geometry">
            <mxPoint x="-10" y="14" as="targetPoint" />
            <mxPoint x="10" y="14" as="sourcePoint" />
          </mxGeometry>
        </mxCell>
        <mxCell id="2QBdlu2DVjJhpSTRe-wy-220" value="" style="group;rotation=90;" vertex="1" connectable="0" parent="1">
          <mxGeometry x="1829" y="1438.0011431703006" width="8" height="28" as="geometry" />
        </mxCell>
        <mxCell id="2QBdlu2DVjJhpSTRe-wy-221" value="" style="ellipse;whiteSpace=wrap;html=1;aspect=fixed;fillColor=light-dark(#FFFFFF,transparent);rotation=90;" vertex="1" parent="2QBdlu2DVjJhpSTRe-wy-220">
          <mxGeometry x="10" y="10" width="8" height="8" as="geometry" />
        </mxCell>
        <mxCell id="2QBdlu2DVjJhpSTRe-wy-222" style="edgeStyle=orthogonalEdgeStyle;rounded=0;orthogonalLoop=1;jettySize=auto;html=1;endArrow=none;startFill=0;" edge="1" parent="2QBdlu2DVjJhpSTRe-wy-220">
          <mxGeometry relative="1" as="geometry">
            <mxPoint x="-10" y="14" as="targetPoint" />
            <mxPoint x="10" y="14" as="sourcePoint" />
          </mxGeometry>
        </mxCell>
        <mxCell id="2QBdlu2DVjJhpSTRe-wy-224" value="&lt;font style=&quot;font-size: 8px;&quot;&gt;codigo&lt;/font&gt;" style="text;html=1;align=center;verticalAlign=middle;resizable=0;points=[];autosize=1;strokeColor=none;fillColor=none;rotation=0;" vertex="1" parent="1">
          <mxGeometry x="1841" y="1391.0011431703008" width="50" height="30" as="geometry" />
        </mxCell>
        <mxCell id="2QBdlu2DVjJhpSTRe-wy-225" value="&lt;font style=&quot;font-size: 8px;&quot;&gt;nombre&lt;/font&gt;" style="text;html=1;align=center;verticalAlign=middle;resizable=0;points=[];autosize=1;strokeColor=none;fillColor=none;rotation=0;" vertex="1" parent="1">
          <mxGeometry x="1841" y="1406.0011431703008" width="50" height="30" as="geometry" />
        </mxCell>
        <mxCell id="2QBdlu2DVjJhpSTRe-wy-226" value="&lt;font style=&quot;font-size: 8px;&quot;&gt;precio&lt;/font&gt;" style="text;html=1;align=center;verticalAlign=middle;resizable=0;points=[];autosize=1;strokeColor=none;fillColor=none;rotation=0;" vertex="1" parent="1">
          <mxGeometry x="1841" y="1420.0011431703008" width="50" height="30" as="geometry" />
        </mxCell>
        <mxCell id="2QBdlu2DVjJhpSTRe-wy-227" value="&lt;font style=&quot;font-size: 8px;&quot;&gt;stock&lt;/font&gt;" style="text;html=1;align=center;verticalAlign=middle;resizable=0;points=[];autosize=1;strokeColor=none;fillColor=none;rotation=0;" vertex="1" parent="1">
          <mxGeometry x="1839" y="1434.0011431703008" width="50" height="30" as="geometry" />
        </mxCell>
        <mxCell id="2QBdlu2DVjJhpSTRe-wy-228" value="Persona" style="rounded=0;whiteSpace=wrap;html=1;" vertex="1" parent="1">
          <mxGeometry x="2079" y="1129.9996189432343" width="200" height="60" as="geometry" />
        </mxCell>
        <mxCell id="2QBdlu2DVjJhpSTRe-wy-229" value="" style="group;rotation=0;" vertex="1" connectable="0" parent="1">
          <mxGeometry x="2125" y="1102.0011431703006" width="8" height="28" as="geometry" />
        </mxCell>
        <mxCell id="2QBdlu2DVjJhpSTRe-wy-230" value="" style="ellipse;whiteSpace=wrap;html=1;aspect=fixed;fillColor=light-dark(#FFFFFF,#FFFFFF);rotation=0;" vertex="1" parent="2QBdlu2DVjJhpSTRe-wy-229">
          <mxGeometry width="8" height="8" as="geometry" />
        </mxCell>
        <mxCell id="2QBdlu2DVjJhpSTRe-wy-231" style="edgeStyle=orthogonalEdgeStyle;rounded=0;orthogonalLoop=1;jettySize=auto;html=1;endArrow=none;startFill=0;" edge="1" parent="2QBdlu2DVjJhpSTRe-wy-229">
          <mxGeometry relative="1" as="geometry">
            <mxPoint x="4" y="28" as="targetPoint" />
            <mxPoint x="4" y="8" as="sourcePoint" />
          </mxGeometry>
        </mxCell>
        <mxCell id="2QBdlu2DVjJhpSTRe-wy-232" value="" style="group;rotation=0;" vertex="1" connectable="0" parent="1">
          <mxGeometry x="2145" y="1102.0011431703006" width="8" height="28" as="geometry" />
        </mxCell>
        <mxCell id="2QBdlu2DVjJhpSTRe-wy-233" value="" style="ellipse;whiteSpace=wrap;html=1;aspect=fixed;fillColor=light-dark(#FFFFFF,transparent);rotation=0;" vertex="1" parent="2QBdlu2DVjJhpSTRe-wy-232">
          <mxGeometry width="8" height="8" as="geometry" />
        </mxCell>
        <mxCell id="2QBdlu2DVjJhpSTRe-wy-234" style="edgeStyle=orthogonalEdgeStyle;rounded=0;orthogonalLoop=1;jettySize=auto;html=1;endArrow=none;startFill=0;" edge="1" parent="2QBdlu2DVjJhpSTRe-wy-232">
          <mxGeometry relative="1" as="geometry">
            <mxPoint x="4" y="28" as="targetPoint" />
            <mxPoint x="4" y="8" as="sourcePoint" />
          </mxGeometry>
        </mxCell>
        <mxCell id="2QBdlu2DVjJhpSTRe-wy-235" value="&lt;font style=&quot;font-size: 8px;&quot;&gt;dni&lt;/font&gt;" style="text;html=1;align=center;verticalAlign=middle;resizable=0;points=[];autosize=1;strokeColor=none;fillColor=none;rotation=-60;" vertex="1" parent="1">
          <mxGeometry x="2109" y="1075.0011431703008" width="40" height="30" as="geometry" />
        </mxCell>
        <mxCell id="2QBdlu2DVjJhpSTRe-wy-236" value="&lt;font style=&quot;font-size: 8px;&quot;&gt;apellidoYNombre&lt;/font&gt;" style="text;html=1;align=center;verticalAlign=middle;resizable=0;points=[];autosize=1;strokeColor=none;fillColor=none;rotation=-60;" vertex="1" parent="1">
          <mxGeometry x="2112" y="1050.0011431703008" width="100" height="30" as="geometry" />
        </mxCell>
        <mxCell id="2QBdlu2DVjJhpSTRe-wy-237" value="" style="group;rotation=0;" vertex="1" connectable="0" parent="1">
          <mxGeometry x="2164" y="1102.0011431703006" width="8" height="28" as="geometry" />
        </mxCell>
        <mxCell id="2QBdlu2DVjJhpSTRe-wy-238" value="" style="ellipse;whiteSpace=wrap;html=1;aspect=fixed;fillColor=light-dark(#FFFFFF,transparent);rotation=0;" vertex="1" parent="2QBdlu2DVjJhpSTRe-wy-237">
          <mxGeometry width="8" height="8" as="geometry" />
        </mxCell>
        <mxCell id="2QBdlu2DVjJhpSTRe-wy-239" style="edgeStyle=orthogonalEdgeStyle;rounded=0;orthogonalLoop=1;jettySize=auto;html=1;endArrow=none;startFill=0;" edge="1" parent="2QBdlu2DVjJhpSTRe-wy-237">
          <mxGeometry relative="1" as="geometry">
            <mxPoint x="4" y="28" as="targetPoint" />
            <mxPoint x="4" y="8" as="sourcePoint" />
          </mxGeometry>
        </mxCell>
        <mxCell id="2QBdlu2DVjJhpSTRe-wy-246" value="&lt;font style=&quot;font-size: 8px;&quot;&gt;nro&lt;/font&gt;" style="text;html=1;align=center;verticalAlign=middle;resizable=0;points=[];autosize=1;strokeColor=none;fillColor=none;rotation=-60;" vertex="1" parent="1">
          <mxGeometry x="2148" y="1074.0011431703008" width="40" height="30" as="geometry" />
        </mxCell>
        <mxCell id="2QBdlu2DVjJhpSTRe-wy-247" value="" style="group;rotation=0;" vertex="1" connectable="0" parent="1">
          <mxGeometry x="2185" y="1102.0011431703006" width="8" height="28" as="geometry" />
        </mxCell>
        <mxCell id="2QBdlu2DVjJhpSTRe-wy-248" value="" style="ellipse;whiteSpace=wrap;html=1;aspect=fixed;fillColor=light-dark(#FFFFFF,transparent);rotation=0;" vertex="1" parent="2QBdlu2DVjJhpSTRe-wy-247">
          <mxGeometry width="8" height="8" as="geometry" />
        </mxCell>
        <mxCell id="2QBdlu2DVjJhpSTRe-wy-249" style="edgeStyle=orthogonalEdgeStyle;rounded=0;orthogonalLoop=1;jettySize=auto;html=1;endArrow=none;startFill=0;" edge="1" parent="2QBdlu2DVjJhpSTRe-wy-247">
          <mxGeometry relative="1" as="geometry">
            <mxPoint x="4" y="28" as="targetPoint" />
            <mxPoint x="4" y="8" as="sourcePoint" />
          </mxGeometry>
        </mxCell>
        <mxCell id="2QBdlu2DVjJhpSTRe-wy-250" value="&lt;font style=&quot;font-size: 8px;&quot;&gt;calle&lt;/font&gt;" style="text;html=1;align=center;verticalAlign=middle;resizable=0;points=[];autosize=1;strokeColor=none;fillColor=none;rotation=-60;" vertex="1" parent="1">
          <mxGeometry x="2166" y="1071.0011431703008" width="50" height="30" as="geometry" />
        </mxCell>
        <mxCell id="2QBdlu2DVjJhpSTRe-wy-251" value="" style="group;rotation=0;" vertex="1" connectable="0" parent="1">
          <mxGeometry x="2204" y="1102.0011431703006" width="8" height="28" as="geometry" />
        </mxCell>
        <mxCell id="2QBdlu2DVjJhpSTRe-wy-252" value="" style="ellipse;whiteSpace=wrap;html=1;aspect=fixed;fillColor=light-dark(#FFFFFF,transparent);rotation=0;" vertex="1" parent="2QBdlu2DVjJhpSTRe-wy-251">
          <mxGeometry width="8" height="8" as="geometry" />
        </mxCell>
        <mxCell id="2QBdlu2DVjJhpSTRe-wy-253" style="edgeStyle=orthogonalEdgeStyle;rounded=0;orthogonalLoop=1;jettySize=auto;html=1;endArrow=none;startFill=0;" edge="1" parent="2QBdlu2DVjJhpSTRe-wy-251">
          <mxGeometry relative="1" as="geometry">
            <mxPoint x="4" y="28" as="targetPoint" />
            <mxPoint x="4" y="8" as="sourcePoint" />
          </mxGeometry>
        </mxCell>
        <mxCell id="2QBdlu2DVjJhpSTRe-wy-254" value="" style="group;rotation=0;" vertex="1" connectable="0" parent="1">
          <mxGeometry x="2225" y="1102.0011431703006" width="8" height="28" as="geometry" />
        </mxCell>
        <mxCell id="2QBdlu2DVjJhpSTRe-wy-255" value="" style="ellipse;whiteSpace=wrap;html=1;aspect=fixed;fillColor=light-dark(#FFFFFF,transparent);rotation=0;" vertex="1" parent="2QBdlu2DVjJhpSTRe-wy-254">
          <mxGeometry width="8" height="8" as="geometry" />
        </mxCell>
        <mxCell id="2QBdlu2DVjJhpSTRe-wy-256" style="edgeStyle=orthogonalEdgeStyle;rounded=0;orthogonalLoop=1;jettySize=auto;html=1;endArrow=none;startFill=0;" edge="1" parent="2QBdlu2DVjJhpSTRe-wy-254">
          <mxGeometry relative="1" as="geometry">
            <mxPoint x="4" y="28" as="targetPoint" />
            <mxPoint x="4" y="8" as="sourcePoint" />
          </mxGeometry>
        </mxCell>
        <mxCell id="2QBdlu2DVjJhpSTRe-wy-257" value="&lt;font style=&quot;font-size: 8px;&quot;&gt;dpto(0,1)&lt;/font&gt;" style="text;html=1;align=center;verticalAlign=middle;resizable=0;points=[];autosize=1;strokeColor=none;fillColor=none;rotation=-60;" vertex="1" parent="1">
          <mxGeometry x="2180" y="1063.0011431703008" width="70" height="30" as="geometry" />
        </mxCell>
        <mxCell id="2QBdlu2DVjJhpSTRe-wy-258" value="&lt;font style=&quot;font-size: 8px;&quot;&gt;piso(0,1)&lt;/font&gt;" style="text;html=1;align=center;verticalAlign=middle;resizable=0;points=[];autosize=1;strokeColor=none;fillColor=none;rotation=-60;" vertex="1" parent="1">
          <mxGeometry x="2201" y="1063.0011431703008" width="70" height="30" as="geometry" />
        </mxCell>
        <mxCell id="2QBdlu2DVjJhpSTRe-wy-259" value="Cliente" style="rounded=0;whiteSpace=wrap;html=1;" vertex="1" parent="1">
          <mxGeometry x="1950" y="1379.9996189432343" width="200" height="60" as="geometry" />
        </mxCell>
        <mxCell id="2QBdlu2DVjJhpSTRe-wy-285" style="edgeStyle=orthogonalEdgeStyle;rounded=0;orthogonalLoop=1;jettySize=auto;html=1;entryX=0.5;entryY=0;entryDx=0;entryDy=0;endArrow=none;startFill=0;" edge="1" parent="1" source="2QBdlu2DVjJhpSTRe-wy-260" target="2QBdlu2DVjJhpSTRe-wy-284">
          <mxGeometry relative="1" as="geometry" />
        </mxCell>
        <mxCell id="2QBdlu2DVjJhpSTRe-wy-260" value="Empleado" style="rounded=0;whiteSpace=wrap;html=1;" vertex="1" parent="1">
          <mxGeometry x="2212" y="1379.9996189432343" width="200" height="60" as="geometry" />
        </mxCell>
        <mxCell id="2QBdlu2DVjJhpSTRe-wy-265" style="edgeStyle=orthogonalEdgeStyle;rounded=0;orthogonalLoop=1;jettySize=auto;html=1;endArrow=none;startFill=0;" edge="1" parent="1" source="2QBdlu2DVjJhpSTRe-wy-261" target="2QBdlu2DVjJhpSTRe-wy-259">
          <mxGeometry relative="1" as="geometry" />
        </mxCell>
        <mxCell id="2QBdlu2DVjJhpSTRe-wy-261" value="es_un1" style="rhombus;whiteSpace=wrap;html=1;" vertex="1" parent="1">
          <mxGeometry x="2010" y="1245" width="80" height="80" as="geometry" />
        </mxCell>
        <mxCell id="2QBdlu2DVjJhpSTRe-wy-266" style="edgeStyle=orthogonalEdgeStyle;rounded=0;orthogonalLoop=1;jettySize=auto;html=1;entryX=0.5;entryY=0;entryDx=0;entryDy=0;endArrow=none;startFill=0;" edge="1" parent="1" source="2QBdlu2DVjJhpSTRe-wy-262" target="2QBdlu2DVjJhpSTRe-wy-260">
          <mxGeometry relative="1" as="geometry" />
        </mxCell>
        <mxCell id="2QBdlu2DVjJhpSTRe-wy-262" value="es_un2" style="rhombus;whiteSpace=wrap;html=1;" vertex="1" parent="1">
          <mxGeometry x="2272" y="1245" width="80" height="80" as="geometry" />
        </mxCell>
        <mxCell id="2QBdlu2DVjJhpSTRe-wy-263" value="" style="endArrow=none;html=1;rounded=0;entryX=0.25;entryY=1;entryDx=0;entryDy=0;exitX=0.5;exitY=0;exitDx=0;exitDy=0;" edge="1" parent="1" source="2QBdlu2DVjJhpSTRe-wy-261" target="2QBdlu2DVjJhpSTRe-wy-228">
          <mxGeometry width="50" height="50" relative="1" as="geometry">
            <mxPoint x="2350" y="1230" as="sourcePoint" />
            <mxPoint x="2400" y="1180" as="targetPoint" />
          </mxGeometry>
        </mxCell>
        <mxCell id="2QBdlu2DVjJhpSTRe-wy-267" value="" style="endArrow=none;html=1;rounded=0;exitX=0.75;exitY=1;exitDx=0;exitDy=0;entryX=0.5;entryY=0;entryDx=0;entryDy=0;" edge="1" parent="1" source="2QBdlu2DVjJhpSTRe-wy-228" target="2QBdlu2DVjJhpSTRe-wy-262">
          <mxGeometry width="50" height="50" relative="1" as="geometry">
            <mxPoint x="2350" y="1230" as="sourcePoint" />
            <mxPoint x="2400" y="1180" as="targetPoint" />
          </mxGeometry>
        </mxCell>
        <mxCell id="2QBdlu2DVjJhpSTRe-wy-270" style="edgeStyle=orthogonalEdgeStyle;rounded=0;orthogonalLoop=1;jettySize=auto;html=1;entryX=0.25;entryY=0;entryDx=0;entryDy=0;endArrow=none;startFill=0;" edge="1" parent="1" source="2QBdlu2DVjJhpSTRe-wy-268" target="2QBdlu2DVjJhpSTRe-wy-259">
          <mxGeometry relative="1" as="geometry" />
        </mxCell>
        <mxCell id="2QBdlu2DVjJhpSTRe-wy-268" value="de" style="rhombus;whiteSpace=wrap;html=1;" vertex="1" parent="1">
          <mxGeometry x="1960" y="1120" width="80" height="80" as="geometry" />
        </mxCell>
        <mxCell id="2QBdlu2DVjJhpSTRe-wy-271" value="(1,1)" style="text;html=1;align=center;verticalAlign=middle;resizable=0;points=[];autosize=1;strokeColor=none;fillColor=none;" vertex="1" parent="1">
          <mxGeometry x="1819" y="1130" width="60" height="30" as="geometry" />
        </mxCell>
        <mxCell id="2QBdlu2DVjJhpSTRe-wy-272" value="(0,n)" style="text;html=1;align=center;verticalAlign=middle;resizable=0;points=[];autosize=1;strokeColor=none;fillColor=none;" vertex="1" parent="1">
          <mxGeometry x="1940" y="1349" width="60" height="30" as="geometry" />
        </mxCell>
        <mxCell id="2QBdlu2DVjJhpSTRe-wy-273" value="(1,1)" style="text;html=1;align=center;verticalAlign=middle;resizable=0;points=[];autosize=1;strokeColor=none;fillColor=none;" vertex="1" parent="1">
          <mxGeometry x="2052" y="1350" width="60" height="30" as="geometry" />
        </mxCell>
        <mxCell id="2QBdlu2DVjJhpSTRe-wy-274" value="(1,1)" style="text;html=1;align=center;verticalAlign=middle;resizable=0;points=[];autosize=1;strokeColor=none;fillColor=none;" vertex="1" parent="1">
          <mxGeometry x="2310" y="1350" width="60" height="30" as="geometry" />
        </mxCell>
        <mxCell id="2QBdlu2DVjJhpSTRe-wy-275" value="(0,1)" style="text;html=1;align=center;verticalAlign=middle;resizable=0;points=[];autosize=1;strokeColor=none;fillColor=none;" vertex="1" parent="1">
          <mxGeometry x="2030" y="1190" width="60" height="30" as="geometry" />
        </mxCell>
        <mxCell id="2QBdlu2DVjJhpSTRe-wy-276" value="(0,1)" style="text;html=1;align=center;verticalAlign=middle;resizable=0;points=[];autosize=1;strokeColor=none;fillColor=none;" vertex="1" parent="1">
          <mxGeometry x="2272" y="1190" width="60" height="30" as="geometry" />
        </mxCell>
        <mxCell id="2QBdlu2DVjJhpSTRe-wy-277" value="supervisa" style="rhombus;whiteSpace=wrap;html=1;" vertex="1" parent="1">
          <mxGeometry x="2490" y="1421" width="80" height="50" as="geometry" />
        </mxCell>
        <mxCell id="2QBdlu2DVjJhpSTRe-wy-278" value="" style="endArrow=none;html=1;rounded=0;entryX=0.5;entryY=0;entryDx=0;entryDy=0;exitX=1;exitY=0.5;exitDx=0;exitDy=0;" edge="1" parent="1" source="2QBdlu2DVjJhpSTRe-wy-260" target="2QBdlu2DVjJhpSTRe-wy-277">
          <mxGeometry width="50" height="50" relative="1" as="geometry">
            <mxPoint x="2080" y="1330" as="sourcePoint" />
            <mxPoint x="2130" y="1280" as="targetPoint" />
          </mxGeometry>
        </mxCell>
        <mxCell id="2QBdlu2DVjJhpSTRe-wy-280" value="" style="endArrow=none;html=1;rounded=0;entryX=0.5;entryY=1;entryDx=0;entryDy=0;exitX=1;exitY=1;exitDx=0;exitDy=0;" edge="1" parent="1" source="2QBdlu2DVjJhpSTRe-wy-260" target="2QBdlu2DVjJhpSTRe-wy-277">
          <mxGeometry width="50" height="50" relative="1" as="geometry">
            <mxPoint x="2080" y="1330" as="sourcePoint" />
            <mxPoint x="2130" y="1280" as="targetPoint" />
          </mxGeometry>
        </mxCell>
        <mxCell id="2QBdlu2DVjJhpSTRe-wy-282" value="(0,n)" style="text;html=1;align=center;verticalAlign=middle;resizable=0;points=[];autosize=1;strokeColor=none;fillColor=none;" vertex="1" parent="1">
          <mxGeometry x="2460" y="1389" width="60" height="30" as="geometry" />
        </mxCell>
        <mxCell id="2QBdlu2DVjJhpSTRe-wy-283" value="(0,1)" style="text;html=1;align=center;verticalAlign=middle;resizable=0;points=[];autosize=1;strokeColor=none;fillColor=none;" vertex="1" parent="1">
          <mxGeometry x="2430" y="1460" width="60" height="30" as="geometry" />
        </mxCell>
        <mxCell id="2QBdlu2DVjJhpSTRe-wy-286" style="edgeStyle=orthogonalEdgeStyle;rounded=0;orthogonalLoop=1;jettySize=auto;html=1;entryX=1;entryY=0.75;entryDx=0;entryDy=0;endArrow=none;startFill=0;" edge="1" parent="1" source="2QBdlu2DVjJhpSTRe-wy-284" target="i1IyLrbdU4EnLdiSXplg-362">
          <mxGeometry relative="1" as="geometry">
            <Array as="points">
              <mxPoint x="1920" y="1491" />
              <mxPoint x="1920" y="1175" />
            </Array>
          </mxGeometry>
        </mxCell>
        <mxCell id="2QBdlu2DVjJhpSTRe-wy-284" value="interviene" style="rhombus;whiteSpace=wrap;html=1;" vertex="1" parent="1">
          <mxGeometry x="2266.5" y="1466" width="91" height="50" as="geometry" />
        </mxCell>
        <mxCell id="2QBdlu2DVjJhpSTRe-wy-287" value="(0,1)" style="text;html=1;align=center;verticalAlign=middle;resizable=0;points=[];autosize=1;strokeColor=none;fillColor=none;" vertex="1" parent="1">
          <mxGeometry x="1818" y="1176" width="60" height="30" as="geometry" />
        </mxCell>
        <mxCell id="2QBdlu2DVjJhpSTRe-wy-288" value="(0,n)" style="text;html=1;align=center;verticalAlign=middle;resizable=0;points=[];autosize=1;strokeColor=none;fillColor=none;" vertex="1" parent="1">
          <mxGeometry x="2310" y="1438" width="60" height="30" as="geometry" />
        </mxCell>
        <mxCell id="2QBdlu2DVjJhpSTRe-wy-289" style="edgeStyle=orthogonalEdgeStyle;rounded=0;orthogonalLoop=1;jettySize=auto;html=1;entryX=0;entryY=0.5;entryDx=0;entryDy=0;endArrow=none;startFill=0;exitX=0.705;exitY=0.004;exitDx=0;exitDy=0;exitPerimeter=0;" edge="1" target="2QBdlu2DVjJhpSTRe-wy-292" parent="1">
          <mxGeometry relative="1" as="geometry">
            <mxPoint x="2412" y="1390.239618943234" as="sourcePoint" />
            <Array as="points">
              <mxPoint x="2460" y="1390" />
              <mxPoint x="2460" y="1364" />
            </Array>
          </mxGeometry>
        </mxCell>
        <mxCell id="2QBdlu2DVjJhpSTRe-wy-290" style="edgeStyle=orthogonalEdgeStyle;rounded=0;orthogonalLoop=1;jettySize=auto;html=1;entryX=0.5;entryY=0;entryDx=0;entryDy=0;endArrow=none;startFill=0;" edge="1" source="2QBdlu2DVjJhpSTRe-wy-291" target="2QBdlu2DVjJhpSTRe-wy-292" parent="1">
          <mxGeometry relative="1" as="geometry" />
        </mxCell>
        <mxCell id="2QBdlu2DVjJhpSTRe-wy-291" value="Area" style="rounded=0;whiteSpace=wrap;html=1;" vertex="1" parent="1">
          <mxGeometry x="2492" y="1206" width="200" height="60" as="geometry" />
        </mxCell>
        <mxCell id="2QBdlu2DVjJhpSTRe-wy-292" value="tiene" style="rhombus;whiteSpace=wrap;html=1;" vertex="1" parent="1">
          <mxGeometry x="2552" y="1324" width="80" height="80" as="geometry" />
        </mxCell>
        <mxCell id="2QBdlu2DVjJhpSTRe-wy-293" value="(1,n)" style="text;html=1;align=center;verticalAlign=middle;resizable=0;points=[];autosize=1;strokeColor=none;fillColor=none;" vertex="1" parent="1">
          <mxGeometry x="2407" y="1362" width="60" height="30" as="geometry" />
        </mxCell>
        <mxCell id="2QBdlu2DVjJhpSTRe-wy-294" value="(1,1)" style="text;html=1;align=center;verticalAlign=middle;resizable=0;points=[];autosize=1;strokeColor=none;fillColor=none;" vertex="1" parent="1">
          <mxGeometry x="2592" y="1267" width="60" height="30" as="geometry" />
        </mxCell>
        <mxCell id="2QBdlu2DVjJhpSTRe-wy-295" value="" style="group;rotation=0;" vertex="1" connectable="0" parent="1">
          <mxGeometry x="2588" y="1178.0011431703006" width="8" height="28" as="geometry" />
        </mxCell>
        <mxCell id="2QBdlu2DVjJhpSTRe-wy-296" value="" style="ellipse;whiteSpace=wrap;html=1;aspect=fixed;fillColor=light-dark(#FFFFFF,#FFFFFF);rotation=0;" vertex="1" parent="2QBdlu2DVjJhpSTRe-wy-295">
          <mxGeometry width="8" height="8" as="geometry" />
        </mxCell>
        <mxCell id="2QBdlu2DVjJhpSTRe-wy-297" style="edgeStyle=orthogonalEdgeStyle;rounded=0;orthogonalLoop=1;jettySize=auto;html=1;endArrow=none;startFill=0;" edge="1" parent="2QBdlu2DVjJhpSTRe-wy-295">
          <mxGeometry relative="1" as="geometry">
            <mxPoint x="4" y="28" as="targetPoint" />
            <mxPoint x="4" y="8" as="sourcePoint" />
          </mxGeometry>
        </mxCell>
        <mxCell id="2QBdlu2DVjJhpSTRe-wy-298" value="&lt;font style=&quot;font-size: 8px;&quot;&gt;area&lt;/font&gt;" style="text;html=1;align=center;verticalAlign=middle;resizable=0;points=[];autosize=1;strokeColor=none;fillColor=none;rotation=-60;" vertex="1" parent="1">
          <mxGeometry x="2574" y="1145.0011431703008" width="40" height="30" as="geometry" />
        </mxCell>
        <mxCell id="2QBdlu2DVjJhpSTRe-wy-299" value="" style="curved=1;endArrow=none;html=1;rounded=0;startFill=0;entryX=0;entryY=0.5;entryDx=0;entryDy=0;" edge="1" target="2QBdlu2DVjJhpSTRe-wy-301" parent="1">
          <mxGeometry width="50" height="50" relative="1" as="geometry">
            <mxPoint x="2477" y="1364" as="sourcePoint" />
            <mxPoint x="2645" y="1195" as="targetPoint" />
            <Array as="points">
              <mxPoint x="2482" y="1290" />
              <mxPoint x="2482" y="1220" />
              <mxPoint x="2492" y="1190" />
            </Array>
          </mxGeometry>
        </mxCell>
        <mxCell id="2QBdlu2DVjJhpSTRe-wy-300" value="" style="group;rotation=0;" vertex="1" connectable="0" parent="1">
          <mxGeometry x="2615" y="1191.0011431703006" width="8" height="28" as="geometry" />
        </mxCell>
        <mxCell id="2QBdlu2DVjJhpSTRe-wy-301" value="" style="ellipse;whiteSpace=wrap;html=1;aspect=fixed;fillColor=light-dark(#FFFFFF,#FFFFFF);rotation=0;" vertex="1" parent="2QBdlu2DVjJhpSTRe-wy-300">
          <mxGeometry width="8" height="8" as="geometry" />
        </mxCell>
        <mxCell id="2QBdlu2DVjJhpSTRe-wy-302" value="" style="curved=1;endArrow=none;html=1;rounded=0;startFill=0;" edge="1" parent="1">
          <mxGeometry width="50" height="50" relative="1" as="geometry">
            <mxPoint x="2091" y="1216" as="sourcePoint" />
            <mxPoint x="2020" y="1350" as="targetPoint" />
            <Array as="points">
              <mxPoint x="2150" y="1361" />
            </Array>
          </mxGeometry>
        </mxCell>
        <mxCell id="2QBdlu2DVjJhpSTRe-wy-303" value="" style="ellipse;whiteSpace=wrap;html=1;aspect=fixed;fillColor=light-dark(#FFFFFF,#FFFFFF);rotation=0;direction=south;" vertex="1" parent="1">
          <mxGeometry x="2015" y="1346.0011431703006" width="8" height="8" as="geometry" />
        </mxCell>
        <mxCell id="2QBdlu2DVjJhpSTRe-wy-304" value="" style="curved=1;endArrow=none;html=1;rounded=0;startFill=0;" edge="1" parent="1">
          <mxGeometry width="50" height="50" relative="1" as="geometry">
            <mxPoint x="2264" y="1213" as="sourcePoint" />
            <mxPoint x="2290" y="1370" as="targetPoint" />
            <Array as="points">
              <mxPoint x="2260" y="1250" />
              <mxPoint x="2224" y="1385" />
            </Array>
          </mxGeometry>
        </mxCell>
        <mxCell id="2QBdlu2DVjJhpSTRe-wy-305" value="" style="ellipse;whiteSpace=wrap;html=1;aspect=fixed;fillColor=light-dark(#FFFFFF,#FFFFFF);rotation=0;direction=south;" vertex="1" parent="1">
          <mxGeometry x="2285" y="1366.0011431703006" width="8" height="8" as="geometry" />
        </mxCell>
        <mxCell id="2QBdlu2DVjJhpSTRe-wy-306" value="" style="group;rotation=0;" vertex="1" connectable="0" parent="1">
          <mxGeometry x="2265" y="1352.0011431703006" width="8" height="28" as="geometry" />
        </mxCell>
        <mxCell id="2QBdlu2DVjJhpSTRe-wy-307" value="" style="ellipse;whiteSpace=wrap;html=1;aspect=fixed;fillColor=light-dark(#FFFFFF,#FFFFFF);rotation=0;" vertex="1" parent="2QBdlu2DVjJhpSTRe-wy-306">
          <mxGeometry width="8" height="8" as="geometry" />
        </mxCell>
        <mxCell id="2QBdlu2DVjJhpSTRe-wy-308" style="edgeStyle=orthogonalEdgeStyle;rounded=0;orthogonalLoop=1;jettySize=auto;html=1;endArrow=none;startFill=0;" edge="1" parent="2QBdlu2DVjJhpSTRe-wy-306">
          <mxGeometry relative="1" as="geometry">
            <mxPoint x="4" y="28" as="targetPoint" />
            <mxPoint x="4" y="8" as="sourcePoint" />
          </mxGeometry>
        </mxCell>
        <mxCell id="2QBdlu2DVjJhpSTRe-wy-312" value="&lt;font style=&quot;font-size: 8px;&quot;&gt;CUIT&lt;/font&gt;" style="text;html=1;align=center;verticalAlign=middle;resizable=0;points=[];autosize=1;strokeColor=none;fillColor=none;rotation=-60;" vertex="1" parent="1">
          <mxGeometry x="2251" y="1323.0011431703008" width="40" height="30" as="geometry" />
        </mxCell>
      </root>
    </mxGraphModel>
  </diagram>
</mxfile>
